<?xml version="1.0" encoding="UTF-8"?>
<svg version="1.1" viewBox="0 0 945 938" width="1280" height="1280" xmlns="http://www.w3.org/2000/svg">
<path transform="translate(0)" d="m0 0h945v938h-945z"/>
<path transform="translate(199,172)" d="m0 0h169l8 11 7 10 13 19 22 32 15 22 16 23 8 12 14 20 15 22 17 25 13 19 3 1 8-8 9-11 13-15 12-14 13-15 24-28 13-15 9-11 10-11 9-11 11-12 8-10 13-15 10-12h2l2-4 12-14 7-8 2-2h47l-1 4-8 10-9 10-9 11-10 11-9 11-26 30-48 56-9 10-12 15h-2l-2 4-8 9-9 11-10 11-9 11-9 10-9 11-9 10-3 4 1 5 15 22 14 20 10 15 11 16 16 23 15 22 22 32 15 22 16 23 13 19 17 25 14 20 8 12 14 20 11 16 8 12 11 16v3l-2 1h-166l-5-5-12-17-13-19-11-16-13-19-11-16-17-25-10-14-10-15-14-20-8-12-13-19-16-23-6-8h-3-2l-2 4-12 13-8 10-9 10-11 13-12 14-13 15-7 9h-2l-2 4-8 9-9 11-9 10-9 11-10 11-9 11-9 10-9 11-9 10-9 11-9 10-7 8-10 12-3 1h-43l-2-1 1-4 12-14 11-13 9-10 9-11 9-10 9-11 8-9 9-11 11-12 9-11 9-10 9-11 10-11 9-11 10-11 8-10 9-10 9-11 10-11 9-11 9-10 9-11 11-12 3-4-1-7-12-18-12-17-15-22-22-32-17-25-14-20-10-15-10-14-8-12-14-20-8-12-11-16-13-19-22-32-9-13-13-19-10-15-1-3z" fill="#FEFEFE"/>
<path transform="translate(266,210)" d="m0 0h78l13 18 26 38 13 18 11 16 28 40 9 13 10 14 11 16 14 20 13 19 10 14 16 23 56 80 11 16 12 17 28 40 12 17 11 16 14 20 16 23 12 17 14 20 1 3h-78l-8-11-28-40-16-23-14-20-12-17-13-19-13-18-16-24-11-15-14-20-12-17-11-16-28-40-12-17-11-16-42-60-9-13-12-17-13-19-8-11-11-16-28-40-12-17-7-10z"/>
</svg>
